<svg width="1170" height="20" viewBox="0 0 1170 20" fill="none" xmlns="http://www.w3.org/2000/svg">
<path d="M343.75 10H543.75" stroke="#7400B8" stroke-width="3" stroke-linecap="round"/>
<path d="M626.25 10H826.25" stroke="#7400B8" stroke-width="3" stroke-linecap="round"/>
<g clip-path="url(#clip0_388_83497)">
<path d="M586.129 0.703125C585.922 0.273438 585.484 0 585.004 0C584.523 0 584.09 0.273438 583.879 0.703125L581.367 5.87109L575.758 6.69922C575.289 6.76953 574.898 7.09766 574.754 7.54688C574.609 7.99609 574.727 8.49219 575.063 8.82422L579.133 12.8516L578.172 18.543C578.094 19.0117 578.289 19.4883 578.676 19.7656C579.063 20.043 579.574 20.0781 579.996 19.8555L585.008 17.1797L590.02 19.8555C590.441 20.0781 590.953 20.0469 591.34 19.7656C591.727 19.4844 591.922 19.0117 591.844 18.543L590.879 12.8516L594.949 8.82422C595.285 8.49219 595.406 7.99609 595.258 7.54688C595.109 7.09766 594.723 6.76953 594.254 6.69922L588.641 5.87109L586.129 0.703125Z" fill="#7400B8"/>
</g>
<defs>
<clipPath id="clip0_388_83497">
<rect width="22.5" height="20" fill="white" transform="translate(573.75)"/>
</clipPath>
</defs>
</svg>
