<svg width="37" height="4" viewBox="0 0 37 4" fill="none" xmlns="http://www.w3.org/2000/svg">
<path d="M35.0062 2.14848C35.42 2.57414 35.8856 3.05315 36.7948 3.05315H36.8062C36.8595 3.04723 36.9087 3.02251 36.9445 2.98369C36.9802 2.94487 36.9999 2.89467 36.9999 2.84266C36.9999 2.79064 36.9802 2.74044 36.9445 2.70163C36.9087 2.66281 36.8595 2.63809 36.8062 2.63217C36.0867 2.63217 35.7486 2.28443 35.3354 1.85937L35.3324 1.85624C34.9178 1.42976 34.4493 0.948245 33.5406 0.948245C32.6319 0.948245 32.1548 1.43801 31.7516 1.85624C31.3484 2.27447 31.0019 2.63217 30.2778 2.63217C29.5537 2.63217 29.2271 2.28273 28.804 1.85624L28.7877 1.83982C28.3689 1.4175 27.9035 0.948245 27.0037 0.948245C26.093 0.948245 25.6216 1.43713 25.2186 1.85511L25.2176 1.85624C24.8143 2.27447 24.465 2.63217 23.7438 2.63217C23.0321 2.63217 22.6991 2.29192 22.2894 1.87314L22.2728 1.85624L22.2653 1.84849C21.8498 1.42395 21.3842 0.948245 20.4782 0.948245C19.5667 0.948245 19.0811 1.43801 18.6892 1.85624C18.2973 2.27447 17.9339 2.63217 17.2126 2.63217C16.4913 2.63217 16.1534 2.28273 15.7416 1.85624L15.7389 1.85343C15.3279 1.42764 14.865 0.948245 13.9555 0.948245C13.044 0.948245 12.5612 1.43801 12.1637 1.85624C11.7661 2.27447 11.4027 2.63217 10.6814 2.63217C9.96012 2.63217 9.61084 2.28273 9.21045 1.85624C8.81006 1.42976 8.34152 0.948245 7.43283 0.948245C6.53149 0.948245 6.06041 1.43013 5.65378 1.84609L5.64385 1.85624L5.6336 1.86672C5.22917 2.28043 4.88531 2.63217 4.17007 2.63217C3.45337 2.63217 3.11798 2.28713 2.70699 1.86433L2.69914 1.85624C2.28455 1.42976 1.82736 0.948245 0.910156 0.948245C0.879543 0.944848 0.848535 0.947759 0.819164 0.956787C0.789793 0.965814 0.762723 0.980755 0.739729 1.00063C0.716735 1.0205 0.698335 1.04486 0.685737 1.07211C0.673139 1.09936 0.666626 1.12888 0.666626 1.15873C0.666626 1.18859 0.673139 1.21811 0.685737 1.24536C0.698335 1.27261 0.716735 1.29697 0.739729 1.31684C0.762723 1.33671 0.789793 1.35166 0.819164 1.36068C0.848535 1.36971 0.879543 1.37262 0.910156 1.36923C1.63143 1.36923 1.99774 1.71867 2.39529 2.14515C2.79284 2.57163 3.25855 3.05315 4.17007 3.05315C5.0816 3.05315 5.5473 2.56063 5.95905 2.14515C6.3708 1.72967 6.71156 1.36923 7.43283 1.36923C8.1541 1.36923 8.49202 1.71867 8.90377 2.14515C9.31552 2.57163 9.78406 3.05315 10.6927 3.05315C11.6005 3.05315 12.0775 2.56164 12.4805 2.14644L12.4817 2.14515L12.4826 2.14421C12.8855 1.72913 13.2348 1.36923 13.9555 1.36923C14.6768 1.36923 15.0147 1.71867 15.4264 2.14515C15.8382 2.57163 16.3067 3.05315 17.2154 3.05315C18.1232 3.05315 18.6002 2.56164 19.0032 2.14643L19.0044 2.14515L19.0053 2.14421C19.4082 1.72913 19.7575 1.36923 20.4782 1.36923C21.1995 1.36923 21.5374 1.71867 21.9491 2.14515C22.3609 2.57163 22.8266 3.05315 23.7381 3.05315C24.6487 3.05315 25.1257 2.56164 25.5287 2.14644L25.5299 2.14515L25.5308 2.14422C25.9337 1.72913 26.283 1.36923 27.0037 1.36923C27.7204 1.36923 28.0558 1.71426 28.4668 2.13706L28.4746 2.14515C28.8892 2.57163 29.3578 3.05315 30.2665 3.05315C31.1742 3.05315 31.6512 2.56165 32.0542 2.14644L32.0554 2.14515L32.061 2.13938C32.4619 1.72634 32.8085 1.36923 33.5292 1.36923C34.2488 1.36923 34.5842 1.71428 34.9952 2.1371L35.003 2.14515L35.0062 2.14848Z" fill="#25CCA8"/>
</svg>
